<svg xmlns="http://www.w3.org/2000/svg" width="24" height="24" fill="none" viewBox="0 0 24 24" id="direct-message"><path fill="#CFD8DC" d="M21.1935 3.78557C21.3088 3.5056 21.2444 3.18377 21.0303 2.96968C20.8162 2.75558 20.4944 2.69122 20.2145 2.8065L3.21445 9.8065C2.91493 9.92983 2.72844 10.2315 2.752 10.5546C2.77556 10.8776 3.00387 11.1491 3.31811 11.2276L10.8815 13.1185L12.7724 20.6819C12.851 20.9962 13.1224 21.2245 13.4454 21.248C13.7685 21.2716 14.0702 21.0851 14.1935 20.7856L21.1935 3.78557Z"></path><path fill="#8B98A6" fill-rule="evenodd" d="M21.2415 3.61438C21.2325 3.67232 21.2167 3.72978 21.1937 3.78558L21.1873 3.80114C21.1509 3.88433 21.0986 3.96226 21.0305 4.03035L12.0305 13.0304L11.0939 13.967L10.8817 13.1185L10.0332 12.9064L10.9699 11.9697L19.9699 2.96969C20.0378 2.9018 20.1154 2.84965 20.1983 2.81323L20.2146 2.80651C20.3236 2.76165 20.4389 2.74399 20.5517 2.75178C20.7187 2.76332 20.8803 2.83061 21.0079 2.94795C21.0155 2.95501 21.0231 2.96225 21.0305 2.96969C21.0387 2.97788 21.0467 2.98622 21.0544 2.99469C21.1662 3.11724 21.2321 3.27084 21.247 3.43037C21.2527 3.49164 21.2508 3.55347 21.2415 3.61438Z" clip-rule="evenodd"></path><path fill="#AEB9BE" fill-rule="evenodd" d="M21.0303 2.96966C20.8162 2.75557 20.4944 2.6912 20.2145 2.80648L3.21445 9.80648C2.91493 9.92981 2.72844 10.2315 2.752 10.5546C2.77556 10.8776 3.00387 11.149 3.31811 11.2276L10.8815 13.1185L21.0303 2.96966Z" clip-rule="evenodd"></path><path fill="#7D8995" fill-rule="evenodd" d="M20.6172 2.7592C20.7705 2.78346 20.9158 2.85514 21.0303 2.96966L10.8816 13.1184L10.0332 12.9064L10.9699 11.9697L19.9699 2.96969C20.0378 2.9018 20.1154 2.84965 20.1983 2.81323L20.2146 2.80651C20.3236 2.76165 20.4389 2.74399 20.5517 2.75178C20.5737 2.7533 20.5955 2.75578 20.6172 2.7592Z" clip-rule="evenodd"></path></svg>